<svg width="50" height="51" viewBox="0 0 50 51" fill="none" xmlns="http://www.w3.org/2000/svg">
<g clip-path="url(#clip0_45_9)">
<path fill-rule="evenodd" clip-rule="evenodd" d="M25 50.5C38.8071 50.5 50 39.3071 50 25.5C50 11.6929 38.8071 0.5 25 0.5C11.1929 0.5 0 11.6929 0 25.5C0 39.3071 11.1929 50.5 25 50.5Z" fill="white"/>
<path fill-rule="evenodd" clip-rule="evenodd" d="M12.5 18.6683V32.8247C12.5 33.5949 13.0637 34.2191 13.8403 34.2191H35.9339C36.7097 34.2191 37.2742 33.5877 37.2742 32.8247V18.6683C37.2742 17.8231 36.7694 17.1667 35.9339 17.1667H13.8403C12.9726 17.1667 12.5 17.8393 12.5 18.6683ZM14.5371 19.9014C14.5371 19.5602 14.7435 19.3651 15.0734 19.3651C15.2774 19.3651 23.3056 24.4522 23.7919 24.7506L25.0484 25.532C25.4468 25.2651 25.8468 25.0368 26.2597 24.7602C27.1024 24.2215 34.6008 19.3651 34.8073 19.3651C35.1379 19.3651 35.3435 19.5602 35.3435 19.9014C35.3435 20.2627 34.6476 20.6215 34.1944 20.8981C31.3468 22.6336 28.5 24.5256 25.6806 26.3256C25.5161 26.4368 25.1976 26.6748 24.9589 26.6385C24.6927 26.5973 16.5234 21.3489 15.0371 20.4748C14.8137 20.3433 14.5371 20.2231 14.5371 19.9014Z" fill="black"/>
</g>
<defs>
<clipPath id="clip0_45_9">
<rect width="50" height="50" fill="white" transform="translate(0 0.5)"/>
</clipPath>
</defs>
</svg>
