<svg width="50" height="51" viewBox="0 0 50 51" fill="none" xmlns="http://www.w3.org/2000/svg">
<g clip-path="url(#clip0_45_7)">
<path fill-rule="evenodd" clip-rule="evenodd" d="M25 0.5C38.7979 0.5 50 11.7021 50 25.5C50 39.2979 38.7979 50.5 25 50.5C11.2021 50.5 0 39.2979 0 25.5C0 11.7021 11.2021 0.5 25 0.5ZM17.1839 39.5499V20.0264H10.6933V39.5499H17.1839ZM40.5843 39.5499V28.354C40.5843 22.357 37.3824 19.5673 33.1127 19.5673C29.6698 19.5673 28.1276 21.4607 27.2642 22.7906V20.0264H20.7752C20.8612 21.8581 20.7752 39.5499 20.7752 39.5499H27.2641V28.6466C27.2641 28.063 27.3061 27.4796 27.478 27.0625C27.9463 25.897 29.0148 24.6896 30.8076 24.6896C33.1547 24.6896 34.095 26.4806 34.095 29.104V39.5499H40.5843ZM13.9824 10.6123C11.7617 10.6123 10.3108 12.0723 10.3108 13.9858C10.3108 15.8591 11.7176 17.3593 13.8965 17.3593H13.9384C16.2016 17.3593 17.6103 15.8591 17.6103 13.9858C17.5683 12.0723 16.2017 10.6123 13.9824 10.6123Z" fill="white"/>
</g>
<defs>
<clipPath id="clip0_45_7">
<rect width="50" height="50" fill="white" transform="translate(0 0.5)"/>
</clipPath>
</defs>
</svg>
