<svg width="135" height="135" viewBox="0 0 135 135" fill="none" xmlns="http://www.w3.org/2000/svg">
<path d="M28.125 39.375H106.875C110.25 39.375 112.5 37.125 112.5 33.75C112.5 30.375 110.25 28.125 106.875 28.125H28.125C24.75 28.125 22.5 30.375 22.5 33.75C22.5 37.125 24.75 39.375 28.125 39.375Z" fill="white"/>
<path d="M28.125 73.125H106.875C110.25 73.125 112.5 70.875 112.5 67.5C112.5 64.125 110.25 61.875 106.875 61.875H28.125C24.75 61.875 22.5 64.125 22.5 67.5C22.5 70.875 24.75 73.125 28.125 73.125Z" fill="white"/>
<path d="M28.125 106.875H106.875C110.25 106.875 112.5 104.625 112.5 101.25C112.5 97.875 110.25 95.625 106.875 95.625H28.125C24.75 95.625 22.5 97.875 22.5 101.25C22.5 104.625 24.75 106.875 28.125 106.875Z" fill="white"/>
</svg>
