<svg width="50" height="50" viewBox="0 0 50 50" fill="none" xmlns="http://www.w3.org/2000/svg">
<g clip-path="url(#clip0_33_26)">
<path fill-rule="evenodd" clip-rule="evenodd" d="M25 50C38.8071 50 50 38.8071 50 25C50 11.1929 38.8071 0 25 0C11.1929 0 0 11.1929 0 25C0 38.8071 11.1929 50 25 50Z" fill="black"/>
<path fill-rule="evenodd" clip-rule="evenodd" d="M12.5 18.1683V32.3247C12.5 33.0949 13.0637 33.7191 13.8403 33.7191H35.9339C36.7097 33.7191 37.2742 33.0877 37.2742 32.3247V18.1683C37.2742 17.3231 36.7694 16.6667 35.9339 16.6667H13.8403C12.9726 16.6667 12.5 17.3393 12.5 18.1683ZM14.5371 19.4014C14.5371 19.0602 14.7435 18.8651 15.0734 18.8651C15.2774 18.8651 23.3056 23.9522 23.7919 24.2506L25.0484 25.032C25.4468 24.7651 25.8468 24.5368 26.2597 24.2602C27.1024 23.7215 34.6008 18.8651 34.8073 18.8651C35.1379 18.8651 35.3435 19.0602 35.3435 19.4014C35.3435 19.7627 34.6476 20.1215 34.1944 20.3981C31.3468 22.1336 28.5 24.0256 25.6806 25.8256C25.5161 25.9368 25.1976 26.1748 24.9589 26.1385C24.6927 26.0973 16.5234 20.8489 15.0371 19.9748C14.8137 19.8433 14.5371 19.7231 14.5371 19.4014Z" fill="white"/>
</g>
<defs>
<clipPath id="clip0_33_26">
<rect width="50" height="50" fill="white"/>
</clipPath>
</defs>
</svg>
