<svg width="300" height="300" viewBox="0 0 300 300" fill="none" xmlns="http://www.w3.org/2000/svg">
<path d="M62.5 25C48.6925 25 37.5 36.25 37.5 50V150V200V275C37.5 288.75 48.6925 300 62.5 300H237.5C251.312 300 262.5 288.75 262.5 275V200V150V100L187.5 25H62.5Z" fill="#C0392B"/>
<path d="M62.5 12.5C48.6925 12.5 37.5 23.75 37.5 37.5V137.5V187.5V262.5C37.5 276.25 48.6925 287.5 62.5 287.5H237.5C251.312 287.5 262.5 276.25 262.5 262.5V187.5V137.5V87.5L187.5 12.5H62.5Z" fill="#E74C3C"/>
<path d="M262.5 87.5L187.5 12.5V62.5C187.5 76.25 198.688 87.5 212.5 87.5H262.5Z" fill="#C0392B"/>
<path d="M238.9 137.5H235.275C234.15 138.75 227.762 147.5 225 150C224.25 151.25 223.125 152.499 222.487 152.499C213.2 163.749 193.45 182.5 181.6 192.5C180.05 193.75 178.55 195 178.275 195C177.45 196.25 169.55 201.249 166 203.749C154.687 211.249 141.412 217.5 131.1 220C110.749 225 94.8699 223.75 74.2549 213.75C68.0249 211.25 59.1486 206.249 54.2824 202.499C49.5074 198.749 50.0111 198.75 50.0186 205V211.25L53.2411 212.5C57.3749 215 66.2974 219.999 72.1149 222.499C76.5474 224.999 77.9286 226.25 75.4486 226.25C73.1636 225 60.1961 225 55.2136 226.25H50.2136C50.0986 226.25 50.0049 228.75 50.0049 231.25V236.25H51.6711C58.8411 233.75 74.2299 233.749 81.3936 234.999C89.8286 236.249 95.7636 237.499 102.892 241.249C116.494 247.499 127.775 259.999 132.687 272.499L133.687 275H139.187H144.687L144.387 273.75C142.625 266.25 137.675 257.5 131.55 251.25C127.525 246.25 120.416 241.25 117.615 238.75H116.67C116.215 237.5 111.464 234.999 109.434 234.999C108.279 233.749 107.337 233.749 107.337 233.749C107.337 232.499 108.212 232.499 109.281 233.749C111.95 233.749 122.697 232.5 127.562 231.25C141.037 228.75 153.787 223.749 166.675 216.249C171.3 213.749 181.8 204.999 186 202.499C189.125 198.749 190.125 198.75 188.85 200C188.4 201.25 187.537 202.499 186.912 203.749C186.3 204.999 185.225 206.25 184.537 207.5C174.812 222.5 168.575 241.25 166.887 262.5C166.65 266.25 166.45 269.999 166.45 271.249V275H195.6H224.75L223.8 273.75C218.55 266.25 212.037 250 209.85 238.75C208.05 230 207.512 216.249 208.637 208.749C211.912 188.749 223.075 171.249 242.25 159.999C244.225 158.749 246.775 157.5 247.912 156.25L250 155V151.25C250 148.75 249.85 146.249 249.662 146.249C245.112 148.749 234.987 155 230.337 157.5C227.85 160 227.7 160 230.037 157.5C233.387 153.75 239.162 147.499 245.3 139.999L248.162 137.5H241.9H238.9Z" fill="#ECF0F1"/>
</svg>
