<svg width="50" height="50" viewBox="0 0 50 50" fill="none" xmlns="http://www.w3.org/2000/svg">
<g clip-path="url(#clip0_33_18)">
<path d="M50.5602 26.0714C50.5602 31.6274 48.9706 36.6245 45.7913 41.0626C42.6121 45.5008 38.5051 48.5721 33.4704 50.2765C32.8844 50.3872 32.4558 50.3097 32.1846 50.0441C31.9133 49.7784 31.7777 49.4464 31.7777 49.048V42.0421C31.7777 39.895 31.2134 38.3234 30.085 37.3273C31.3219 37.1945 32.4341 36.9952 33.4216 36.7296C34.409 36.464 35.4289 36.0323 36.4814 35.4347C37.534 34.837 38.4129 34.101 39.1182 33.2267C39.8235 32.3523 40.3985 31.1902 40.8434 29.7404C41.2883 28.2905 41.5107 26.6248 41.5107 24.7433C41.5107 22.0649 40.6535 19.785 38.9391 17.9034C39.7421 15.8891 39.6553 13.6313 38.6787 11.13C38.0711 10.9308 37.1922 11.0525 36.042 11.4952C34.8918 11.9379 33.8936 12.4249 33.0472 12.9562L31.8102 13.7531C29.792 13.1775 27.7087 12.8898 25.5602 12.8898C23.4118 12.8898 21.3285 13.1775 19.3102 13.7531C18.963 13.5096 18.5018 13.2107 17.9268 12.8566C17.3517 12.5024 16.4456 12.0763 15.2087 11.5782C13.9717 11.0802 13.0385 10.9308 12.4092 11.13C11.4543 13.6313 11.3784 15.8891 12.1813 17.9034C10.4669 19.785 9.6097 22.0649 9.6097 24.7433C9.6097 26.6248 9.83214 28.285 10.277 29.7238C10.7219 31.1626 11.2916 32.3247 11.986 33.2101C12.6805 34.0955 13.5539 34.837 14.6065 35.4347C15.659 36.0323 16.6789 36.464 17.6663 36.7296C18.6538 36.9952 19.766 37.1945 21.0029 37.3273C20.1349 38.1241 19.6032 39.2641 19.4079 40.7472C18.9522 40.9685 18.4639 41.1346 17.943 41.2452C17.4222 41.3559 16.8037 41.4113 16.0876 41.4113C15.3714 41.4113 14.6607 41.1733 13.9554 40.6974C13.2501 40.2215 12.6479 39.5297 12.1488 38.6222C11.7364 37.9139 11.2102 37.3383 10.57 36.8956C9.9298 36.4529 9.39269 36.1873 8.95866 36.0988L8.30762 35.9991C7.85189 35.9991 7.53722 36.049 7.36361 36.1486C7.19 36.2482 7.13575 36.3754 7.20085 36.5304C7.26596 36.6853 7.36361 36.8403 7.49382 36.9952C7.62403 37.1502 7.76509 37.283 7.917 37.3937L8.14486 37.5597C8.62229 37.781 9.0943 38.2016 9.56088 38.8214C10.0275 39.4412 10.3693 40.0057 10.5863 40.5148L10.9118 41.2784C11.1939 42.1196 11.6713 42.8003 12.3441 43.3204C13.0168 43.8406 13.7438 44.1726 14.5251 44.3165C15.3063 44.4604 16.0604 44.5379 16.7874 44.549C17.5144 44.56 18.1166 44.5213 18.5941 44.4327L19.3428 44.2999C19.3428 45.1411 19.3482 46.1261 19.3591 47.255C19.3699 48.3839 19.3753 48.9816 19.3753 49.048C19.3753 49.4464 19.2343 49.7784 18.9522 50.0441C18.67 50.3097 18.236 50.3872 17.6501 50.2765C12.6153 48.5721 8.50836 45.5008 5.32911 41.0626C2.14985 36.6245 0.560226 31.6274 0.560226 26.0714C0.560226 21.4451 1.67785 17.1785 3.91309 13.2716C6.14833 9.36471 9.1811 6.27128 13.0114 3.99133C16.8417 1.71139 21.0246 0.571411 25.5602 0.571411C30.0958 0.571411 34.2788 1.71139 38.1091 3.99133C41.9393 6.27128 44.9721 9.36471 47.2074 13.2716C49.4426 17.1785 50.5602 21.4451 50.5602 26.0714Z" fill="black"/>
</g>
<defs>
<clipPath id="clip0_33_18">
<rect width="50" height="50" fill="white"/>
</clipPath>
</defs>
</svg>
