<svg width="50" height="51" viewBox="0 0 50 51" fill="none" xmlns="http://www.w3.org/2000/svg">
<g clip-path="url(#clip0_45_5)">
<path d="M50.8075 26.6975C50.8075 32.281 49.21 37.3028 46.0151 41.7629C42.8201 46.223 38.6928 49.3095 33.6331 51.0223C33.0443 51.1336 32.6136 51.0557 32.341 50.7888C32.0684 50.5218 31.9321 50.1882 31.9321 49.7878V42.7472C31.9321 40.5895 31.365 39.0101 30.231 38.0091C31.4741 37.8756 32.5918 37.6754 33.5841 37.4085C34.5764 37.1415 35.6014 36.7077 36.6591 36.1071C37.7168 35.5065 38.6001 34.7669 39.3089 33.8882C40.0177 33.0095 40.5956 31.8417 41.0427 30.3846C41.4897 28.9276 41.7133 27.2537 41.7133 25.3628C41.7133 22.6712 40.8518 20.38 39.1289 18.4892C39.9359 16.4649 39.8486 14.1959 38.8672 11.6822C38.2566 11.482 37.3733 11.6044 36.2175 12.0493C35.0616 12.4942 34.0584 12.9836 33.2079 13.5174L31.9648 14.3183C29.9366 13.7399 27.8429 13.4507 25.6839 13.4507C23.5248 13.4507 21.4312 13.7399 19.403 14.3183C19.054 14.0736 18.5906 13.7733 18.0126 13.4173C17.4347 13.0614 16.5242 12.6332 15.2811 12.1327C14.038 11.6322 13.1002 11.482 12.4678 11.6822C11.5082 14.1959 11.4319 16.4649 12.2388 18.4892C10.5159 20.38 9.65445 22.6712 9.65445 25.3628C9.65445 27.2537 9.87799 28.922 10.3251 30.3679C10.7721 31.8139 11.3446 32.9817 12.0425 33.8715C12.7404 34.7613 13.6182 35.5065 14.6759 36.1071C15.7336 36.7077 16.7586 37.1415 17.7509 37.4085C18.7432 37.6754 19.8609 37.8756 21.104 38.0091C20.2317 38.8099 19.6974 39.9555 19.5011 41.4459C19.0431 41.6684 18.5524 41.8352 18.029 41.9464C17.5056 42.0576 16.884 42.1133 16.1644 42.1133C15.4447 42.1133 14.7304 41.8741 14.0216 41.3959C13.3129 40.9176 12.7077 40.2224 12.2061 39.3104C11.7917 38.5986 11.2628 38.0202 10.6195 37.5753C9.97613 37.1304 9.43636 36.8635 9.00019 36.7745L8.34593 36.6744C7.88794 36.6744 7.57172 36.7244 7.39725 36.8245C7.22278 36.9246 7.16826 37.0525 7.23368 37.2083C7.29911 37.364 7.39725 37.5197 7.5281 37.6754C7.65895 37.8311 7.80071 37.9646 7.95337 38.0758L8.18236 38.2426C8.66215 38.4651 9.13649 38.8877 9.60538 39.5106C10.0743 40.1335 10.4178 40.7007 10.6358 41.2123L10.963 41.9798C11.2465 42.8251 11.7263 43.5091 12.4024 44.0319C13.0784 44.5546 13.809 44.8883 14.5941 45.0329C15.3792 45.1775 16.1371 45.2553 16.8677 45.2665C17.5983 45.2776 18.2035 45.2387 18.6833 45.1497L19.4357 45.0162C19.4357 45.8615 19.4411 46.8514 19.452 47.9859C19.4629 49.1204 19.4684 49.721 19.4684 49.7878C19.4684 50.1882 19.3266 50.5218 19.0431 50.7888C18.7596 51.0557 18.3234 51.1336 17.7346 51.0223C12.675 49.3095 8.54766 46.223 5.35268 41.7629C2.1577 37.3028 0.560211 32.281 0.560211 26.6975C0.560211 22.0484 1.68336 17.7606 3.92966 13.8344C6.17596 9.9082 9.22373 6.79947 13.073 4.50825C16.9222 2.21702 21.1258 1.07141 25.6839 1.07141C30.2419 1.07141 34.4455 2.21702 38.2948 4.50825C42.144 6.79947 45.1918 9.9082 47.4381 13.8344C49.6844 17.7606 50.8075 22.0484 50.8075 26.6975Z" fill="white"/>
</g>
<defs>
<clipPath id="clip0_45_5">
<rect width="50" height="50" fill="white" transform="translate(0 0.5)"/>
</clipPath>
</defs>
</svg>
